<!DOCTYPE svg PUBLIC "-//W3C//DTD SVG 20010904//EN" "http://www.w3.org/TR/2001/REC-SVG-20010904/DTD/svg10.dtd">
<svg version="1.0" xmlns="http://www.w3.org/2000/svg" width="277px" height="176px" viewBox="0 0 2770 1760" preserveAspectRatio="xMidYMid meet">
<g id="layer101" fill="#3362bf" stroke="none">
 <path d="M0 880 l0 -880 1385 0 1385 0 0 880 0 880 -1385 0 -1385 0 0 -880z"/>
 </g>
<g id="layer102" fill="#5078c8" stroke="none">
 <path d="M0 880 l0 -880 1385 0 1385 0 0 880 0 880 -1385 0 -1385 0 0 -880z m2246 726 c5 -5 448 -1025 452 -1039 4 -16 -3 -18 -88 -15 l-93 3 -92 233 c-50 127 -94 235 -97 238 -3 3 -16 -21 -28 -52 -12 -32 -55 -141 -97 -241 l-75 -183 -89 0 c-49 0 -89 3 -89 7 0 4 65 157 145 339 l145 333 -83 193 -84 194 86 -4 c47 -2 87 -5 87 -6z m-821 -356 c110 -53 180 -164 192 -302 23 -265 -160 -445 -416 -408 -165 23 -263 125 -293 301 -25 153 31 306 139 380 69 48 115 59 228 56 82 -2 109 -7 150 -27z m-1075 -175 l0 -195 83 0 c170 -1 303 -41 378 -115 59 -57 74 -97 74 -200 0 -80 -3 -95 -28 -137 -31 -54 -89 -98 -162 -123 -58 -19 -229 -34 -397 -35 l-118 0 0 500 0 500 85 0 85 0 0 -195z m1540 -345 l0 -540 -85 0 -85 0 0 540 0 540 85 0 85 0 0 -540z"/>
 <path d="M1202 1137 c-44 -14 -98 -76 -113 -129 -18 -69 -7 -195 22 -248 43 -81 147 -112 229 -70 70 36 102 106 102 224 -1 85 -19 136 -65 184 -46 48 -106 61 -175 39z"/>
 <path d="M350 575 l0 -157 123 4 c138 5 194 25 222 78 21 41 19 108 -5 148 -33 54 -95 75 -227 80 l-113 4 0 -157z"/>
 </g>
<g id="layer103" fill="#5e83cc" stroke="none">
 <path d="M0 880 l0 -880 1385 0 1385 0 0 880 0 880 -1385 0 -1385 0 0 -880z m2246 727 c1 -1 102 -231 224 -512 122 -280 227 -518 232 -528 8 -17 3 -18 -88 -15 l-96 3 -93 233 c-51 128 -95 235 -97 237 -2 2 -47 -102 -100 -233 l-96 -237 -91 -3 c-50 -1 -91 1 -91 6 0 4 65 157 145 340 l145 332 -71 162 c-39 90 -77 178 -85 197 l-14 34 87 -7 c48 -3 88 -7 89 -9z m-859 -343 c92 -25 185 -118 214 -212 18 -61 23 -185 9 -244 -36 -153 -129 -242 -284 -268 -175 -31 -337 54 -397 209 -29 74 -32 219 -6 303 56 183 249 271 464 212z m-1037 -189 l0 -195 93 0 c217 -1 375 -73 428 -197 29 -68 26 -175 -7 -241 -65 -131 -192 -171 -536 -172 l-148 0 0 500 0 500 85 0 85 0 0 -195z m1550 -345 l0 -540 -90 0 -90 0 0 540 0 540 90 0 90 0 0 -540z"/>
 <path d="M1205 1135 c-51 -18 -99 -72 -115 -130 -21 -74 -9 -193 24 -250 48 -81 140 -106 226 -62 66 32 100 104 100 206 0 42 -5 93 -11 114 -15 57 -70 112 -124 126 -53 13 -51 13 -100 -4z"/>
 <path d="M350 575 l0 -158 123 5 c99 4 130 9 164 27 55 27 77 69 71 132 -10 104 -71 141 -245 147 l-113 4 0 -157z"/>
 </g>
<g id="layer104" fill="#7191d2" stroke="none">
 <path d="M0 880 l0 -880 1385 0 1385 0 0 880 0 880 -1385 0 -1385 0 0 -880z m2405 365 c89 -203 194 -443 233 -533 l71 -163 -96 3 -97 3 -87 220 c-48 121 -91 229 -94 240 -6 20 -6 20 -16 0 -5 -11 -49 -119 -98 -240 l-89 -220 -95 -3 -95 -3 148 341 148 340 -55 127 c-30 71 -68 159 -84 196 l-28 68 86 -3 87 -3 161 -370z m-996 12 c269 -99 286 -556 25 -686 -68 -34 -162 -47 -241 -32 -186 34 -293 170 -293 371 0 159 73 287 194 341 95 42 213 44 315 6z m-1059 -182 l0 -195 93 0 c280 -1 448 -113 449 -302 0 -93 -19 -145 -72 -199 -83 -83 -199 -109 -487 -109 l-163 0 0 500 0 500 90 0 90 0 0 -195z m1550 -345 l0 -540 -90 0 -90 0 0 540 0 540 90 0 90 0 0 -540z"/>
 <path d="M1225 1140 c-96 -21 -145 -102 -145 -236 0 -154 93 -253 217 -229 49 9 117 76 132 130 16 57 14 165 -4 216 -32 89 -115 139 -200 119z"/>
 <path d="M355 718 c-3 -8 -4 -77 -3 -153 l3 -140 115 1 c176 1 240 39 240 141 0 57 -30 104 -85 132 -39 20 -66 25 -156 29 -88 4 -110 2 -114 -10z"/>
 </g>
<g id="layer105" fill="#83a0d8" stroke="none">
 <path d="M0 880 l0 -880 1385 0 1385 0 0 880 0 880 -1385 0 -1385 0 0 -880z m2476 205 l231 -530 -85 -3 c-47 -2 -90 -1 -97 1 -6 3 -53 112 -105 242 -52 131 -95 234 -97 229 -2 -5 -45 -112 -96 -239 l-93 -230 -96 -3 -97 -3 89 203 c48 112 115 265 148 341 l60 138 -75 172 c-41 95 -79 182 -84 195 l-9 23 87 -3 88 -3 231 -530z m-1067 172 c72 -26 134 -85 173 -165 62 -125 48 -317 -31 -424 -69 -94 -156 -133 -296 -132 -77 0 -99 4 -150 27 -134 62 -205 182 -205 347 0 159 73 287 194 341 96 42 212 45 315 6z m-1059 -182 l0 -195 93 0 c117 0 195 -14 272 -49 81 -37 119 -72 151 -137 55 -112 29 -254 -59 -329 -84 -72 -192 -94 -464 -95 l-173 0 0 500 0 500 90 0 90 0 0 -195z m1550 -345 l0 -540 -90 0 -90 0 0 540 0 540 90 0 90 0 0 -540z"/>
 <path d="M1169 1117 c-73 -49 -107 -178 -79 -295 33 -140 181 -196 280 -105 47 41 70 104 70 187 0 109 -36 188 -100 221 -45 23 -130 19 -171 -8z"/>
 <path d="M354 717 c-2 -7 -3 -76 -2 -152 l3 -140 116 1 c142 2 201 22 224 78 42 100 -10 189 -125 215 -67 16 -209 14 -216 -2z"/>
 </g>
<g id="layer106" fill="#93abdd" stroke="none">
 <path d="M0 880 l0 -880 1385 0 1385 0 0 880 0 880 -1385 0 -1385 0 0 -880z m2450 268 c113 -260 217 -501 232 -535 l27 -64 -97 3 -97 3 -95 237 -94 236 -96 -236 -96 -237 -96 -3 -97 -3 118 273 c66 150 130 299 145 332 14 32 26 66 26 75 0 10 -34 96 -76 192 -41 96 -78 180 -81 187 -4 9 16 12 83 12 l89 0 205 -472z m-1115 131 c119 -22 202 -86 252 -194 56 -123 39 -318 -36 -421 -121 -163 -399 -180 -550 -32 -109 106 -134 322 -55 478 43 87 134 152 236 169 75 12 87 12 153 0z m-975 -204 l0 -195 93 0 c281 -1 441 -114 440 -314 0 -83 -16 -128 -67 -183 -76 -85 -196 -113 -482 -113 l-174 0 0 500 0 500 95 0 95 0 0 -195z m1540 -345 l0 -540 -90 0 -90 0 0 540 0 540 90 0 90 0 0 -540z"/>
 <path d="M1180 1122 c-41 -20 -76 -68 -91 -126 -16 -60 -6 -173 19 -223 58 -113 193 -135 275 -44 89 99 71 319 -32 388 -42 28 -120 31 -171 5z"/>
 <path d="M360 575 l0 -158 116 6 c138 8 193 28 218 81 37 78 6 153 -78 195 -39 20 -69 25 -152 29 l-104 5 0 -158z"/>
 </g>
<g id="layer107" fill="#a2b7e1" stroke="none">
 <path d="M0 880 l0 -880 1385 0 1385 0 0 880 0 880 -1385 0 -1385 0 0 -880z m2258 713 c5 -16 109 -257 231 -537 122 -279 220 -511 217 -513 -3 -3 -47 -2 -98 3 l-93 9 -94 236 -95 237 -81 -202 c-45 -110 -89 -218 -98 -238 l-16 -38 -95 0 -95 0 18 43 c10 23 75 173 145 333 69 159 126 297 126 306 0 8 -36 97 -80 198 -44 101 -80 185 -80 186 0 2 40 4 89 4 88 0 89 0 99 -27z m-923 -314 c119 -22 198 -82 249 -189 29 -60 31 -73 31 -175 0 -60 -6 -129 -13 -152 -28 -92 -121 -187 -210 -213 -62 -19 -166 -23 -223 -10 -112 26 -183 84 -233 189 -29 62 -31 73 -31 181 0 108 2 119 31 180 50 104 121 161 234 186 71 16 94 16 165 3z m-975 -204 l0 -195 98 0 c217 0 369 -76 423 -210 18 -47 17 -166 -3 -211 -41 -94 -142 -160 -274 -179 -38 -5 -151 -10 -251 -10 l-183 0 0 500 0 500 95 0 95 0 0 -195z m1540 -345 l0 -540 -90 0 -90 0 0 540 0 540 90 0 90 0 0 -540z"/>
 <path d="M1180 1122 c-19 -10 -48 -41 -65 -67 -28 -45 -30 -55 -30 -144 0 -79 4 -103 22 -138 60 -112 189 -132 274 -43 88 93 75 311 -23 383 -40 30 -132 34 -178 9z"/>
 <path d="M360 575 l0 -158 116 6 c149 8 195 27 220 92 20 54 13 103 -21 144 -38 44 -96 63 -212 69 l-103 5 0 -158z"/>
 </g>
<g id="layer108" fill="#b6c6e8" stroke="none">
 <path d="M0 880 l0 -880 1385 0 1385 0 0 880 0 880 -1385 0 -1385 0 0 -880z m2472 218 c125 -288 230 -531 234 -541 6 -16 -1 -18 -91 -15 l-98 3 -88 220 c-48 121 -91 229 -94 240 l-6 20 -10 -20 c-5 -11 -49 -119 -98 -240 l-89 -220 -96 -3 c-53 -1 -96 0 -96 3 0 2 65 156 145 340 80 184 145 340 145 346 0 6 -34 90 -76 187 -42 97 -78 183 -81 190 -4 9 17 12 83 12 l89 0 227 -522z m-1132 182 c131 -25 223 -108 265 -238 25 -77 18 -238 -13 -306 -36 -80 -85 -131 -160 -168 -63 -31 -73 -33 -172 -33 -92 0 -112 3 -160 26 -75 35 -143 105 -171 177 -34 87 -38 227 -9 312 60 179 222 268 420 230z m-980 -204 l0 -193 128 -6 c139 -6 214 -25 287 -75 145 -100 167 -314 43 -428 -91 -84 -141 -96 -420 -102 l-228 -4 0 501 0 501 95 0 95 0 0 -194z m1540 -346 l0 -540 -90 0 -90 0 0 540 0 540 90 0 90 0 0 -540z"/>
 <path d="M1181 1124 c-122 -63 -135 -331 -20 -416 55 -41 143 -41 198 0 14 10 37 39 51 63 22 39 25 56 25 139 -1 109 -21 161 -77 201 -42 30 -130 37 -177 13z"/>
 <path d="M360 575 l0 -158 113 8 c175 11 232 47 232 146 0 100 -75 148 -240 157 l-105 5 0 -158z"/>
 </g>
<g id="layer109" fill="#ced9f0" stroke="none">
 <path d="M0 880 l0 -880 1385 0 1385 0 0 880 0 880 -1385 0 -1385 0 0 -880z m2478 208 c128 -293 232 -537 232 -541 0 -4 -44 -6 -97 -5 l-97 3 -96 240 c-88 222 -95 237 -105 210 -5 -16 -49 -124 -96 -239 l-86 -211 -97 -3 c-53 -1 -96 0 -96 4 0 3 65 157 145 341 80 184 145 338 145 343 0 4 -36 92 -80 195 -44 103 -80 189 -80 191 0 2 40 4 88 4 l88 0 232 -532z m-1113 188 c69 -18 104 -38 154 -86 129 -125 141 -385 25 -538 -33 -43 -115 -95 -176 -112 -29 -7 -80 -11 -130 -8 -144 7 -250 76 -307 197 -24 51 -26 67 -26 181 0 114 2 130 27 182 27 59 91 129 143 155 79 42 199 54 290 29z m-1005 -201 l0 -195 103 0 c230 0 381 -82 423 -228 41 -141 -25 -284 -158 -341 -77 -32 -151 -41 -360 -41 l-198 0 0 500 0 500 95 0 95 0 0 -195z m1540 -345 l0 -540 -90 0 -90 0 0 540 0 540 90 0 90 0 0 -540z"/>
 <path d="M1176 1118 c-63 -36 -91 -101 -91 -208 0 -150 60 -230 175 -230 70 0 114 26 150 90 21 39 25 58 25 135 0 151 -53 226 -164 232 -44 3 -64 -1 -95 -19z"/>
 <path d="M367 723 c-4 -3 -7 -71 -7 -150 l0 -143 113 0 c171 1 231 37 231 140 0 82 -43 125 -148 147 -65 13 -178 17 -189 6z"/>
 </g>
<g id="layer110" fill="#dbe3f4" stroke="none">
 <path d="M0 880 l0 -880 1385 0 1385 0 0 880 0 880 -1385 0 -1385 0 0 -880z m2479 208 c127 -293 231 -537 231 -541 0 -4 -44 -6 -97 -5 l-98 3 -94 237 -95 237 -96 -237 -96 -237 -97 -3 c-53 -1 -97 1 -97 5 0 4 66 159 146 345 l146 338 -81 190 c-44 104 -81 192 -81 195 0 3 40 5 89 5 l88 0 232 -532z m-1058 170 c147 -68 225 -232 199 -418 -28 -197 -159 -310 -362 -310 -220 0 -361 149 -360 381 1 181 83 307 234 360 79 28 214 22 289 -13z m-1061 -180 l0 -193 94 -2 c183 -3 296 -41 371 -125 113 -126 94 -323 -39 -415 -85 -58 -126 -66 -383 -71 l-233 -4 0 501 0 501 95 0 95 0 0 -192z m1540 -348 l0 -540 -90 0 -90 0 0 540 0 540 90 0 90 0 0 -540z"/>
 <path d="M1200 1129 c-36 -15 -69 -48 -93 -94 -31 -62 -30 -195 3 -260 37 -72 68 -90 150 -90 83 0 113 18 150 91 21 41 25 63 25 134 0 72 -4 93 -26 135 -41 80 -130 115 -209 84z"/>
 <path d="M373 724 c-10 -4 -13 -44 -13 -150 l0 -144 103 0 c158 0 219 27 236 103 19 81 -18 145 -98 172 -48 15 -207 29 -228 19z"/>
 </g>
<g id="layer111" fill="#ffffff" stroke="none">
 <path d="M0 880 l0 -880 1385 0 1385 0 0 880 0 880 -1385 0 -1385 0 0 -880z m2259 713 c56 -121 451 -1036 451 -1044 0 -6 -37 -9 -97 -7 l-98 3 -94 236 -95 235 -77 -190 c-42 -105 -86 -212 -98 -238 l-20 -48 -97 0 c-87 0 -96 2 -91 18 2 9 68 164 146 344 l142 328 -80 189 c-45 105 -81 193 -81 196 0 3 40 5 88 5 87 0 89 -1 101 -27z m-839 -334 c76 -35 121 -77 158 -147 59 -111 65 -271 12 -389 -27 -61 -102 -137 -160 -162 -149 -64 -342 -33 -435 71 -156 172 -123 496 61 604 73 43 121 54 219 51 71 -2 102 -8 145 -28z m-1060 -181 l0 -193 103 -1 c213 -3 346 -66 409 -191 27 -56 30 -69 27 -135 -7 -129 -66 -208 -196 -259 -53 -21 -77 -23 -295 -27 l-238 -4 0 501 0 501 95 0 95 0 0 -192z m1540 -353 l0 -545 -90 0 -90 0 0 545 0 545 90 0 90 0 0 -545z"/>
 <path d="M1195 1126 c-70 -31 -106 -103 -107 -212 0 -161 65 -242 187 -232 106 9 159 84 158 228 0 66 -4 94 -20 125 -48 92 -135 128 -218 91z"/>
 <path d="M393 723 l-33 -4 0 -146 0 -145 123 4 c171 5 217 34 217 136 0 101 -59 142 -225 155 -27 2 -65 2 -82 0z"/>
 </g>

</svg>